# xmcd
# 
# Track frame offsets:
#     183
#     14023
#     32878
#     50623
#     68550
#     80518
#     94368
#     105760
#     122330
#     137288
#     147058
# 
# Disc length: 2256
# 
# Revision: 0
# Processed by: cddbd v1.5.2PL0 Copyright (c) Steve Scherf et al.
# Submitted via: fre:ac v1.0.17
# 
DISCID=8708ce0b
DTITLE=The Flying Burrito Brothers - The Gilded Palace of Sin
DYEAR=1968
DGENRE=Country
TTITLE0=Christine's Tune
TTITLE1=Sin City
TTITLE2=Do Right Woman
TTITLE3=Dark End Of The Street
TTITLE4=My Uncle
TTITLE5=Wheels
TTITLE6=Juanita
TTITLE7=Hot Burrito #1
TTITLE8=Hot Burrito #2
TTITLE9=Do You Know How It Feels
TTITLE10=Hippie Boy
EXTD=YEAR: 1968
EXTT0=
EXTT1=
EXTT2=
EXTT3=
EXTT4=
EXTT5=
EXTT6=
EXTT7=
EXTT8=
EXTT9=
EXTT10=
PLAYORDER=
